<svg width="8" height="9" viewBox="0 0 8 9" fill="none" xmlns="http://www.w3.org/2000/svg">
<path d="M6.46093 2.55068L6.49785 2.53781C6.63825 2.49947 6.78392 2.57462 6.84074 2.70823L6.86488 2.78546L7.2664 4.25001L7.64975 5.68233C7.72482 5.9688 7.78682 6.21091 7.83386 6.40213C7.998 7.06847 7.72612 7.61643 7.10298 7.85652C6.13193 8.23041 5.19213 8.57226 4.27238 8.88467C3.65847 9.09363 3.10256 8.84211 2.80478 8.23551L2.58848 7.78747L2.17797 6.9151L1.73349 5.95563L1.20473 4.80215C1.13728 4.65402 1.19952 4.48012 1.34376 4.41374C1.47597 4.35289 1.63118 4.40351 1.70809 4.52647L1.75879 4.63138L2.25463 5.71269L2.77358 6.83167C2.99978 7.31551 3.1854 7.70614 3.31955 7.97918C3.48925 8.32486 3.74609 8.44107 4.08202 8.32673C4.99458 8.01676 5.92737 7.67746 6.8916 7.3062C7.24284 7.17087 7.36857 6.91748 7.27472 6.53651L7.15312 6.05682C7.11492 5.90926 7.07226 5.74653 7.02552 5.56991L6.71084 4.39819L6.2993 2.89754C6.25941 2.75376 6.33078 2.60645 6.46093 2.55068ZM0.634407 3.94798C0.485232 4.00228 0.319166 3.92228 0.263487 3.76931C0.212448 3.62908 0.271883 3.4762 0.397045 3.40988L0.432776 3.39401L1.6095 2.96572C1.74933 2.91482 1.83817 2.778 1.83357 2.62911L1.82934 2.58416L1.75104 2.08452C1.71916 1.74634 1.90062 1.43125 2.19803 1.29491L2.25513 1.27148L3.7796 0.716618C4.09114 0.60323 4.43965 0.704847 4.65901 0.978036L4.69859 1.03126L4.9495 1.44839C5.02816 1.57906 5.1786 1.64328 5.32087 1.61181L5.36323 1.59947L6.54002 1.17115C6.68919 1.11686 6.85526 1.19686 6.91094 1.34983C6.96198 1.49006 6.90254 1.64293 6.77738 1.70926L6.74165 1.72513L0.634407 3.94798ZM3.98124 1.27059L2.45677 1.82545C2.38098 1.85304 2.33017 1.92304 2.32299 1.9904L2.32265 2.01897L2.39861 2.50003C2.40785 2.55875 2.41155 2.6172 2.41006 2.67475L4.563 1.89122C4.5392 1.86432 4.51672 1.83585 4.49573 1.80587L4.45933 1.74986L4.21858 1.34846C4.17177 1.28065 4.09147 1.24775 4.01411 1.26171L3.98124 1.27059Z" fill="#EA7C69"/>
</svg>
