<svg width="10" height="10" viewBox="0 0 10 10" fill="none" xmlns="http://www.w3.org/2000/svg">
<path d="M3.97094 0.709991L4.07916 0.755923L4.51361 0.958513C4.66266 1.02758 4.83061 1.04249 4.98876 1.00201L5.05585 0.981268L5.51142 0.815453C6.22217 0.556761 7.00565 0.901028 7.30125 1.58684L7.33206 1.66443L7.49771 2.11956C7.55414 2.27458 7.66183 2.40415 7.80139 2.48754L7.86309 2.5204L8.29758 2.723C8.98071 3.03967 9.29367 3.82978 9.02574 4.52306L8.98921 4.60917L8.7839 5.04945C8.71495 5.19778 8.70005 5.36585 8.74046 5.52385L8.76116 5.59086L8.92714 6.04687C9.18582 6.75759 8.84145 7.54068 8.1556 7.83626L8.078 7.86707L7.62243 8.03288C7.46797 8.0891 7.33829 8.19709 7.25492 8.33694L7.22209 8.39877L7.0196 8.83222C6.70368 9.51576 5.91294 9.82878 5.2194 9.56076L5.12782 9.52168L4.69435 9.31955C4.54449 9.25031 4.37618 9.23526 4.21844 9.27552L4.15157 9.29617L3.69556 9.46215C2.98511 9.72073 2.20187 9.37671 1.90633 8.69103L1.87552 8.61345L1.70955 8.15744C1.65342 8.00323 1.5453 7.87342 1.40558 7.79026L1.34383 7.75754L0.910188 7.55496C0.22662 7.23856 -0.0864053 6.4478 0.181808 5.75479L0.218377 5.66871L0.422885 5.22936C0.492207 5.07931 0.507259 4.91132 0.466826 4.75321L0.446097 4.68614L0.280444 4.23101L0.254171 4.15178C0.0477444 3.46298 0.391324 2.72587 1.05142 2.44133L1.12898 2.41053L1.58499 2.24456C1.73943 2.18835 1.86917 2.08045 1.95249 1.94114L1.98529 1.87956L2.18755 1.44502C2.50421 0.761906 3.29494 0.449101 3.97094 0.709991ZM2.86316 1.67836L2.82912 1.74303L2.62599 2.17944C2.4796 2.49047 2.22595 2.73691 1.91356 2.87451L1.82694 2.9093L1.37093 3.07528C1.02191 3.20231 0.83231 3.57452 0.925738 3.9271L0.945189 3.98906L1.11084 4.44419C1.22846 4.76733 1.22428 5.12073 1.10117 5.4406L1.06465 5.52696L0.859843 5.96695C0.70471 6.30161 0.831716 6.69486 1.14364 6.87946L1.20847 6.91352L1.64339 7.1167C1.95453 7.26223 2.20169 7.51621 2.33946 7.82882L2.37429 7.91549L2.54027 8.37151C2.66738 8.72073 3.03932 8.91022 3.39169 8.81684L3.45361 8.7974L3.90962 8.63143C4.23215 8.51404 4.58588 8.51824 4.90581 8.64136L4.99217 8.67789L5.42939 8.88177C5.7663 9.03772 6.15969 8.91077 6.34406 8.59893L6.37807 8.53413L6.58142 8.09882C6.72746 7.78757 6.98111 7.54074 7.29378 7.40297L7.38048 7.36814L7.83605 7.20233C8.18557 7.07511 8.37524 6.70324 8.28184 6.35077L8.26239 6.28882L8.09642 5.83281C7.97886 5.50981 7.98281 5.15555 8.10604 4.83685L8.1426 4.75086L8.34766 4.31112C8.50269 3.97618 8.37567 3.58315 8.06409 3.39854L7.99934 3.36447L7.56299 3.16099C7.25176 3.01452 7.00556 2.76114 6.86781 2.44827L6.83297 2.36151L6.66732 1.90638C6.54015 1.55698 6.16795 1.36731 5.81534 1.46075L5.75337 1.4802L5.2978 1.64601C4.97466 1.76363 4.62089 1.7597 4.30159 1.63654L4.21541 1.59999L3.79928 1.40528L3.77564 1.3953C3.44101 1.24018 3.04765 1.36714 2.86316 1.67836ZM6.30539 5.54448C6.3477 5.56421 6.3872 5.58999 6.41944 5.62342C6.44725 5.65847 6.47224 5.69956 6.48837 5.74387C6.50467 5.78863 6.51016 5.8313 6.51138 5.87602C6.50817 5.92236 6.4961 5.97192 6.47637 6.01424C6.43691 6.09886 6.36561 6.16496 6.27698 6.19722C6.18834 6.22948 6.09124 6.22467 6.00661 6.18521C5.9643 6.16548 5.92763 6.13366 5.89538 6.10023C5.86314 6.0668 5.83992 6.03058 5.82363 5.98582C5.8075 5.9415 5.80023 5.89396 5.80344 5.84763C5.80665 5.80129 5.81591 5.75777 5.83564 5.71546C5.91456 5.54621 6.13614 5.46556 6.30539 5.54448ZM5.4774 3.26461C5.63835 3.33966 5.71629 3.5204 5.6671 3.68566L5.64849 3.73465L4.1997 6.84158C4.11714 7.01863 3.9067 7.09522 3.72965 7.01267C3.56871 6.93762 3.49077 6.75687 3.53996 6.59161L3.55857 6.54262L5.00736 3.43569C5.08992 3.25865 5.30036 3.18205 5.4774 3.26461ZM3.19848 4.09589C3.28294 4.13491 3.3492 4.20665 3.38146 4.29528C3.39759 4.3396 3.40751 4.38065 3.40447 4.42743C3.40126 4.47377 3.38757 4.5189 3.36945 4.56564C3.34972 4.60795 3.32217 4.64257 3.28874 4.67482C3.25531 4.70706 3.21438 4.7325 3.17006 4.74863C3.12575 4.76476 3.08247 4.76997 3.03614 4.76676C2.9898 4.76355 2.94201 4.75635 2.8997 4.73662C2.85577 4.71246 2.82071 4.68507 2.78847 4.65164C2.75606 4.61776 2.73285 4.58154 2.71672 4.53723C2.70042 4.49247 2.69332 4.44537 2.69653 4.39903C2.69974 4.3527 2.70738 4.30475 2.72872 4.26687C2.81192 4.09556 3.02907 4.01652 3.19848 4.09589Z" fill="#EA7C69"/>
</svg>
