<svg width="11" height="11" viewBox="0 0 11 11" fill="none" xmlns="http://www.w3.org/2000/svg">
<path d="M2.65957 1.21996C3.05964 0.567958 3.84202 0.26312 4.57197 0.46368L4.66267 0.49089L8.14678 1.66739C8.52741 1.78933 8.83391 2.06471 9.00026 2.42524L9.03712 2.5127L10.3451 6.10631C10.6822 7.03252 10.2247 8.0522 9.32558 8.43468L8.44368 8.75566C8.01917 8.90064 7.55902 8.69673 7.37799 8.29588L7.35081 8.23501L6.88966 6.968C6.8395 6.83018 6.69535 6.75266 6.55019 6.7799L6.50869 6.78999L5.325 7.22081C5.18524 7.2767 5.10712 7.42057 5.13778 7.55997L5.14803 7.60191L5.60773 8.86492C5.61725 8.89107 5.62366 8.92387 5.62774 8.94748L5.62669 8.9584L5.63295 8.99075C5.71748 9.38707 5.51195 9.7876 5.13623 9.95496L5.08007 9.97992L4.28681 10.2686C3.3606 10.6058 2.33842 10.1552 1.95724 9.25961L0.61701 5.57737C0.483734 5.19878 0.520722 4.78884 0.706769 4.4451L2.65957 1.21996ZM4.45293 1.11427C4.01774 0.966525 3.53444 1.12788 3.26524 1.49135L3.21607 1.56445L1.31215 4.71709C1.19927 4.88816 1.16911 5.09487 1.21308 5.28463L1.23402 5.35731L2.54053 8.94694C2.75506 9.53634 3.39176 9.85164 3.99009 9.67402L4.85426 9.35949C4.95175 9.324 5.01192 9.22732 4.9909 9.12958L4.97117 9.04642L4.96738 9.02221L4.53203 7.82611C4.35944 7.35193 4.58251 6.83411 5.03476 6.62885L6.28449 6.17399C6.75823 6.00156 7.2762 6.22507 7.48146 6.67733L7.96681 8.0108C8.00068 8.10387 8.09635 8.15989 8.19128 8.14491L9.01512 7.84506C9.60896 7.62892 9.92603 6.99709 9.75002 6.4032L9.72909 6.33052L8.42257 2.74089C8.3485 2.55255 8.20449 2.40371 8.01888 2.32121L7.94337 2.29299L4.45293 1.11427Z" fill="#EA7C69"/>
</svg>
