<svg width="19" height="19" viewBox="0 0 19 19" fill="none" xmlns="http://www.w3.org/2000/svg">
<path d="M12.3099 0.567737L1.96939 4.33136C0.747734 4.77601 0.115416 6.13202 0.560062 7.35367L1.32112 9.44467C1.6042 10.2224 2.14362 10.8266 2.79794 11.204L5.33113 18.1639C5.40242 18.3598 5.54862 18.5194 5.73755 18.6075C5.92648 18.6956 6.14267 18.705 6.33856 18.6337L12.2474 16.4831C12.4433 16.4118 12.6028 16.2656 12.6909 16.0766C12.779 15.8877 12.7885 15.6715 12.7172 15.4756L11.373 11.7826L14.3275 10.7073L15.6716 14.4003C15.7429 14.5962 15.8891 14.7557 16.078 14.8438C16.267 14.9319 16.4832 14.9414 16.679 14.8701L18.1563 14.3324C18.3521 14.2611 18.5117 14.1149 18.5998 13.926C18.6879 13.7371 18.6973 13.5209 18.626 13.325L16.0926 6.36436C16.3514 5.65535 16.3763 4.84581 16.093 4.06732L15.3322 1.97706C14.8875 0.755409 13.5315 0.123091 12.3099 0.567737ZM13.855 2.51472L14.616 4.60572C14.9225 5.44773 14.5567 6.39389 13.8019 6.71463L13.7219 6.74541C12.9072 7.04193 12.0036 6.62055 11.707 5.80586L10.6317 2.85144L12.8475 2.04495C13.2552 1.89655 13.7068 2.10775 13.855 2.51472ZM7.2754 7.41885L6.20008 4.46442L9.1545 3.3891L10.2298 6.34352C10.5263 7.15821 10.105 8.06188 9.29027 8.3584C8.47559 8.65492 7.57192 8.23353 7.2754 7.41885ZM2.03727 6.81601C1.88915 6.40904 2.09934 5.95697 2.50705 5.80858L4.72287 5.00208L5.79819 7.95651C6.09471 8.77119 5.67332 9.67486 4.85864 9.97138L4.77732 9.99847C3.99318 10.2387 3.1048 9.74902 2.79833 8.90701L2.03727 6.81601ZM9.42604 13.3277L6.47162 14.403L5.66513 12.1872L8.61955 11.1119L9.42604 13.3277Z" fill="url(#paint0_linear)"/>
<defs>
<linearGradient id="paint0_linear" x1="7.13963" y1="2.44955" x2="12.2474" y2="16.4831" gradientUnits="userSpaceOnUse">
<stop stop-color="#EA9769"/>
<stop offset="1" stop-color="#EA6969"/>
</linearGradient>
</defs>
</svg>
