<svg width="11" height="11" viewBox="0 0 11 11" fill="none" xmlns="http://www.w3.org/2000/svg">
<path d="M3.66971 1.03073C4.7241 0.646964 5.88694 1.1642 6.31468 2.18907L6.35049 2.2808L6.50098 2.69427C6.5678 2.87784 6.47315 3.08081 6.28959 3.14762C6.12132 3.20887 5.93674 3.13444 5.85569 2.98022L5.83624 2.93622L5.68575 2.52275C5.43365 1.83013 4.68599 1.46095 3.98887 1.66987L3.91165 1.69548L1.75123 2.48181C1.05898 2.73376 0.689887 3.48146 0.898796 4.17852L0.9244 4.25574L2.71965 9.18815C2.97172 9.88072 3.71936 10.25 4.41612 10.0412L4.4933 10.0156L6.65816 9.22764C7.34832 8.97644 7.71637 8.2314 7.50828 7.53696L7.48277 7.46004L7.33067 7.04213C7.26386 6.85857 7.3585 6.6556 7.54207 6.58879C7.71033 6.52754 7.89491 6.60197 7.97596 6.75619L7.99541 6.80018L8.14752 7.21809C8.52999 8.26893 8.01494 9.42794 6.99427 9.85555L6.9001 9.89239L4.73525 10.6803C3.68121 11.064 2.51842 10.5466 2.09071 9.52183L2.0549 9.4301L0.259654 4.49769C-0.124083 3.44338 0.393043 2.28048 1.41758 1.85286L1.50928 1.81706L3.66971 1.03073ZM8.25818 2.61322L8.30721 2.63172L10.075 3.45126C10.0909 3.45861 10.1054 3.46667 10.1194 3.47573L10.075 3.45126C10.0934 3.45982 10.1108 3.46975 10.127 3.48089C10.1384 3.48866 10.1494 3.49724 10.16 3.50648C10.1619 3.5083 10.1639 3.51008 10.1659 3.51188C10.1753 3.52046 10.1843 3.52967 10.1928 3.5394C10.1964 3.5437 10.2 3.54806 10.2035 3.5525C10.2102 3.56064 10.2164 3.56924 10.2222 3.57817C10.2252 3.58299 10.2281 3.58777 10.231 3.59262C10.2361 3.60101 10.2408 3.60987 10.2452 3.619C10.2481 3.6254 10.2509 3.63176 10.2536 3.63819C10.2555 3.64245 10.2571 3.64679 10.2587 3.65118L10.2629 3.66387C10.2652 3.67078 10.2672 3.67777 10.269 3.68481L10.2587 3.65118C10.2663 3.67194 10.2718 3.69295 10.2753 3.71398C10.276 3.71929 10.2768 3.72488 10.2775 3.7305C10.279 3.74158 10.2798 3.75257 10.2801 3.76351C10.28 3.76866 10.28 3.77385 10.2799 3.77904C10.2798 3.79157 10.2789 3.80399 10.2774 3.81628C10.2769 3.81911 10.2765 3.82224 10.276 3.82537C10.2709 3.85898 10.2611 3.89131 10.2469 3.92164L10.2465 3.9223L9.41923 5.68685C9.33631 5.86372 9.12571 5.93988 8.94884 5.85696C8.78804 5.78158 8.71048 5.60068 8.76 5.43552L8.77872 5.38657L9.2413 4.39745L4.7112 6.04672C4.52764 6.11354 4.32467 6.01889 4.25786 5.83532C4.19661 5.66706 4.27104 5.48248 4.42526 5.40143L4.46926 5.38198L9.00024 3.73238L8.00968 3.27352C7.84856 3.19882 7.77023 3.01825 7.81904 2.85289L7.83755 2.80385C7.91224 2.64274 8.09281 2.5644 8.25818 2.61322Z" fill="#EA7C69"/>
</svg>
