<svg width="11" height="11" viewBox="0 0 11 11" fill="none" xmlns="http://www.w3.org/2000/svg">
<path d="M5.93282 0.751485C6.6065 0.514844 7.34845 0.566438 7.98589 0.89427C8.62333 1.2221 9.10061 1.79756 9.2999 2.46642L10.3053 5.23063C10.5905 5.89087 10.5947 6.63849 10.3172 7.29936C10.0396 7.96023 9.50437 8.47667 8.83244 8.72979L4.81709 10.1913C3.41247 10.7025 1.98594 9.93617 1.45407 8.47485L0.440785 5.69087C-0.0910899 4.22956 0.509102 2.72556 1.91372 2.21432L5.93282 0.751485ZM6.17185 1.43154L2.16025 2.89164C1.1439 3.26156 0.712042 4.34378 1.11326 5.44611L2.12654 8.23009C2.52776 9.33242 3.55422 9.88386 4.57057 9.51394L8.58217 8.05383C9.06718 7.87111 9.45567 7.49625 9.65715 7.01654C9.85864 6.53684 9.85553 5.99417 9.64071 5.49516L8.62074 2.69099C8.47123 2.19083 8.12479 1.77313 7.66209 1.53516C7.1994 1.2972 6.66084 1.25975 6.17185 1.43154ZM7.50647 3.00846C7.66028 3.10281 7.71899 3.29459 7.65143 3.45614L7.62734 3.50357L6.34135 5.63336C6.02561 6.1413 5.42113 6.38096 4.84597 6.23481L4.75544 6.20851L2.39011 5.41076C2.20233 5.34743 2.10046 5.14326 2.16257 4.95473C2.21904 4.78334 2.39159 4.68388 2.56358 4.7148L2.61504 4.72804L4.97739 5.5248C5.24118 5.6112 5.52696 5.52121 5.69233 5.30909L5.73108 5.25355L7.01465 3.12771C7.11708 2.95806 7.33728 2.90467 7.50647 3.00846Z" fill="#EA7C69"/>
</svg>
