<svg width="9" height="10" viewBox="0 0 9 10" fill="none" xmlns="http://www.w3.org/2000/svg">
<path d="M6.35719 7.7344C6.52759 7.7936 6.61925 7.98064 6.56194 8.15218C6.51957 8.27899 6.4613 8.39993 6.39183 8.50693C6.16147 8.87732 5.79326 9.14126 5.36847 9.24095C4.94331 9.34073 4.49584 9.26788 4.12485 9.03791C3.97113 8.94261 3.92207 8.74017 4.01528 8.58575C4.10849 8.43133 4.30866 8.38339 4.46239 8.47869C4.68612 8.61738 4.95754 8.66157 5.21634 8.60084C5.47551 8.54001 5.69993 8.37914 5.843 8.14922C5.88582 8.08319 5.92005 8.01214 5.94489 7.9378C6.00221 7.76627 6.1868 7.67521 6.35719 7.7344ZM0.442293 4.52181L0.351644 4.25577C0.314435 4.14141 0.282313 4.03437 0.253827 3.92855C-0.135384 2.44595 0.83929 0.864345 2.33237 0.320908L2.36398 0.309403C3.85626 -0.233741 5.61966 0.35043 6.28002 1.7374C6.32115 1.82588 6.35406 1.90579 6.39662 2.01952L6.52408 2.36849C6.53598 2.40017 6.5467 2.42794 6.55701 2.45372L6.59276 2.53919L6.64268 2.61493C6.7891 2.82318 6.97727 2.99922 7.19558 3.13203L7.29095 3.18628L7.33107 3.21143C7.60898 3.41492 7.82574 3.69051 7.96314 4.02228L8.02776 4.20117C8.16051 4.605 8.15428 5.04397 8.00264 5.46305C7.78432 5.97006 7.38764 6.38006 6.89248 6.61368C5.62178 7.23886 4.28697 7.72469 2.91551 8.0616C2.38161 8.19973 1.81587 8.14082 1.3019 7.88393C0.90662 7.64979 0.608117 7.28249 0.462617 6.85448L0.424561 6.74876C0.322848 6.42009 0.311215 6.07017 0.390733 5.73526L0.406562 5.68613C0.531394 5.3828 0.571966 5.05242 0.524225 4.72953L0.527381 4.75894L0.442293 4.52181ZM2.58905 0.927771L2.55744 0.939276C1.36166 1.3745 0.585962 2.63323 0.882508 3.76287C0.899182 3.8248 0.917599 3.88826 0.938102 3.95464L1.00621 4.16391L1.1516 4.57235L1.1681 4.63752C1.23333 5.07868 1.17798 5.52939 1.00806 5.94226L1.02068 5.90901L1.00516 5.98785C0.97998 6.14627 0.984888 6.30659 1.01765 6.45463L1.04064 6.54187L1.07584 6.63881C1.17257 6.92321 1.36816 7.16387 1.60717 7.30645C1.95969 7.48198 2.36554 7.52425 2.75306 7.42401C4.08332 7.0972 5.37444 6.62727 6.60826 6.02028C6.96621 5.85136 7.24974 5.55832 7.39795 5.21564C7.50072 4.9305 7.49656 4.61916 7.38369 4.33098L7.35769 4.25841C7.27227 4.05283 7.13193 3.8744 6.95151 3.7423L6.96236 3.75108L6.87518 3.70166C6.56986 3.51831 6.30704 3.2724 6.10415 2.98011L6.03091 2.86836L6.01025 2.82937C5.9841 2.77094 5.96219 2.71854 5.93752 2.65491L5.7904 2.25444C5.75246 2.15279 5.72473 2.08516 5.69235 2.01549C5.1888 0.957881 3.78448 0.492668 2.58905 0.927771Z" fill="#EA7C69"/>
</svg>
