<svg width="11" height="10" viewBox="0 0 11 10" fill="none" xmlns="http://www.w3.org/2000/svg">
<path d="M4.07343 0.418522C4.3876 0.304032 4.73379 0.319004 5.03315 0.460027C5.3325 0.60105 5.55953 0.856115 5.65129 1.13788L5.67887 1.20197C5.70998 1.26364 5.75404 1.31805 5.80964 1.36274C5.91846 1.45118 6.05912 1.4929 6.20059 1.47871C6.34206 1.46452 6.47273 1.39558 6.57581 1.27351L6.63504 1.21035C7.08874 0.760894 7.8151 0.722468 8.30457 1.12654L8.74444 1.48961C8.75604 1.49919 8.76694 1.50947 8.77708 1.5204L8.8203 1.56071C9.24832 1.98046 9.29542 2.64791 8.94547 3.12308L8.857 3.23478C8.81221 3.29719 8.78187 3.36847 8.76776 3.44598C8.74157 3.58405 8.77225 3.72598 8.853 3.84033C8.93374 3.95469 9.05789 4.03203 9.21299 4.05807L9.30388 4.07758C9.58313 4.1494 9.82674 4.31639 9.99134 4.54951C10.1771 4.81252 10.2476 5.13894 10.1865 5.46084L10.0679 6.04434L10.0483 6.12768C9.88096 6.73658 9.26792 7.12714 8.65426 7.02457L8.58286 7.01607C8.50991 7.0114 8.4365 7.02097 8.37409 7.04177C8.23941 7.09006 8.12923 7.18911 8.06806 7.31685C8.0069 7.44459 7.99982 7.59043 8.05371 7.73741L8.0778 7.81478C8.24294 8.42161 7.90582 9.06107 7.29953 9.28174L6.75208 9.481C6.10999 9.7147 5.40386 9.39419 5.18291 8.78508L5.15532 8.721C5.12421 8.65933 5.08015 8.60492 5.02171 8.55789C4.91427 8.46863 4.7745 8.42579 4.63345 8.4389C4.49241 8.452 4.36179 8.51996 4.25638 8.64351L4.19153 8.71083C3.98204 8.91158 3.70799 9.03433 3.41754 9.05688C3.08986 9.08232 2.76709 8.97829 2.52578 8.77207L2.06942 8.39705L2.00607 8.33993C1.55525 7.90162 1.52412 7.18879 1.93036 6.71282L1.96661 6.66721C2.06957 6.52476 2.09591 6.34209 2.03642 6.17865C1.97173 6.00092 1.81518 5.87192 1.61091 5.83743L1.5265 5.81925C0.910131 5.66251 0.521429 5.06409 0.638102 4.43266L0.757236 3.8647C0.879189 3.20406 1.52005 2.75822 2.17703 2.86616L2.2473 2.87551C2.31735 2.88067 2.38796 2.87124 2.45116 2.84898C2.72877 2.74797 2.87544 2.44726 2.77775 2.16577L2.75023 2.07843C2.67608 1.80397 2.70292 1.51091 2.82659 1.25103C2.96612 0.957834 3.21786 0.729925 3.52611 0.617732L4.07343 0.418522ZM4.30709 1.06006L3.75963 1.25932C3.6256 1.3081 3.51614 1.40719 3.45548 1.53467C3.40171 1.64766 3.39003 1.77509 3.41801 1.87994L3.46124 2.01722C3.62981 2.62304 3.29568 3.26825 2.68124 3.4918C2.52227 3.54783 2.35364 3.57035 2.16818 3.55622L2.0669 3.5432C1.77437 3.49524 1.49448 3.68996 1.43964 3.9865L1.32051 4.55447C1.27026 4.82665 1.44011 5.08814 1.69501 5.15325L1.83664 5.18288C2.23156 5.27786 2.55303 5.56049 2.69127 5.9403C2.8275 6.31458 2.7672 6.73274 2.52277 7.07043L2.4692 7.13809C2.28881 7.34963 2.30235 7.65974 2.48772 7.84036L2.52985 7.87851L2.98026 8.24832C3.08787 8.34025 3.22884 8.38569 3.37195 8.37458C3.49879 8.36473 3.61849 8.31111 3.69913 8.2343L3.7389 8.19365C3.94953 7.9448 4.25131 7.78778 4.57716 7.7575C4.90301 7.72723 5.22594 7.82619 5.46991 8.02894C5.59932 8.13296 5.70454 8.26289 5.78649 8.42644L5.85246 8.57988C5.97074 8.81909 6.25683 8.93468 6.51856 8.83942L7.06602 8.64016C7.33072 8.54381 7.47803 8.26439 7.40978 8.0126L7.39469 7.96335C7.28294 7.66095 7.29921 7.32552 7.43989 7.03172C7.58057 6.73791 7.83398 6.51012 8.15095 6.39654C8.30767 6.34411 8.47286 6.32258 8.65409 6.33459L8.81963 6.3537C9.07381 6.36823 9.3094 6.20437 9.37393 5.97055L9.38815 5.90966L9.50401 5.33947C9.5302 5.2014 9.49952 5.05947 9.41877 4.94512C9.34721 4.84377 9.24128 4.77115 9.13478 4.74342L8.98691 4.7126C8.70059 4.64379 8.44925 4.47504 8.28043 4.23594C8.09472 3.97293 8.02416 3.64651 8.08392 3.33144C8.11574 3.15652 8.18648 2.99033 8.30014 2.83252L8.35537 2.76264C8.53497 2.55001 8.52136 2.23996 8.33645 2.05823L8.28358 2.01045L8.27344 2.00007L7.85376 1.65337C7.65532 1.48955 7.36747 1.49233 7.17693 1.64226L7.13478 1.67947L7.09737 1.71893C6.88795 1.96842 6.58742 2.12697 6.26204 2.1596C5.93666 2.19224 5.61316 2.09628 5.36428 1.89403C5.23487 1.79 5.12965 1.66007 5.0477 1.49653L5.00123 1.38695C4.95625 1.25112 4.8571 1.13973 4.72636 1.07814C4.59562 1.01655 4.44445 1.01006 4.30709 1.06006ZM4.88767 3.50067C5.7041 3.20351 6.60197 3.61106 6.89311 4.41096C7.18424 5.21085 6.75841 6.10019 5.94197 6.39735C5.12554 6.69451 4.22767 6.28696 3.93653 5.48706C3.6454 4.68717 4.07123 3.79783 4.88767 3.50067ZM5.12119 4.14226C4.66642 4.30778 4.42922 4.80316 4.59138 5.24872C4.75355 5.69427 5.25368 5.92129 5.70845 5.75576C6.16322 5.59024 6.40042 5.09486 6.23825 4.6493C6.07608 4.20375 5.57596 3.97673 5.12119 4.14226Z" fill="#EA7C69"/>
</svg>
