<svg width="10" height="11" viewBox="0 0 10 11" fill="none" xmlns="http://www.w3.org/2000/svg">
<path d="M3.54528 3.2619C3.61225 3.32497 3.66611 3.40026 3.70461 3.48516L4.76208 5.85479C4.77652 5.88728 4.80361 5.91259 4.83736 5.92511C4.86267 5.9345 4.89017 5.93613 4.91781 5.92945L4.94543 5.91998L7.36153 4.87207C7.55784 4.78726 7.77992 4.78549 7.9752 4.86717C8.17048 4.94886 8.32159 5.10674 8.39967 5.32461C8.8725 6.96551 8.1837 8.73187 6.70837 9.66171C5.23304 10.5916 3.32455 10.4622 2.02636 9.34749C1.68412 9.06288 1.39824 8.71937 1.18702 8.34312L1.11135 8.20053C1.05218 8.09467 1.00104 7.98464 0.959912 7.87605L0.922201 7.76815C0.318388 6.095 0.965893 4.22251 2.47546 3.23158L2.57972 3.1654L2.63702 3.13312C2.94047 2.97324 3.31559 3.02627 3.54528 3.2619ZM2.97228 3.73018L2.93649 3.74802L2.84356 3.80775C1.64346 4.60361 1.11214 6.07954 1.54536 7.43285L1.58261 7.54229C1.60953 7.62607 1.64265 7.70767 1.68465 7.79206L1.72971 7.87755C1.91153 8.24009 2.16693 8.56147 2.48449 8.82561C3.55554 9.74522 5.12516 9.85163 6.33853 9.08688C7.5519 8.32214 8.1184 6.86942 7.73639 5.54104C7.72928 5.52153 7.71432 5.50584 7.69493 5.49773C7.682 5.49232 7.6679 5.4906 7.65429 5.49248L7.63448 5.49801L5.22237 6.54417C5.01962 6.63472 4.78967 6.64259 4.58341 6.56605C4.37716 6.48951 4.2116 6.33487 4.1239 6.1375L3.06733 3.76988C3.06556 3.76597 3.06303 3.76244 3.0498 3.74957C3.02954 3.72883 2.99941 3.72191 2.97228 3.73018ZM4.07393 0.680803C5.99264 0.043285 8.08224 0.828172 9.05459 2.55162L9.07753 2.60142L9.10909 2.69123C9.14644 2.82703 9.13896 2.97183 9.08732 3.10478C9.02246 3.27174 8.89293 3.40732 8.7251 3.48251L5.84997 4.74644C5.48023 4.90517 5.05372 4.74268 4.89504 4.38308L3.6458 1.56338L3.62445 1.49778L3.60767 1.42123C3.58682 1.28225 3.61123 1.13946 3.6778 1.01337C3.7614 0.855036 3.90514 0.73499 4.07393 0.680803ZM4.30229 1.32438L5.53421 4.10259C5.54166 4.11948 5.56166 4.1271 5.57616 4.12089L8.43003 2.86561L8.38646 2.79112C7.57202 1.45481 5.93271 0.839061 4.40032 1.29387L4.30229 1.32438Z" fill="#EA7C69"/>
</svg>
